<?xml version="1.0" encoding="UTF-8"?>
<svg width="16px" height="16px" viewBox="0 0 16 16" version="1.1" xmlns="http://www.w3.org/2000/svg" xmlns:xlink="http://www.w3.org/1999/xlink">
    <!-- Generator: Sketch 63 (92445) - https://sketch.com -->
    <title>感叹号</title>
    <desc>Created with Sketch.</desc>
    <g id="页面-1" stroke="none" stroke-width="1" fill="none" fill-rule="evenodd">
        <g id="注册" transform="translate(-720.000000, -382.000000)" fill-rule="nonzero">
            <g id="感叹号" transform="translate(720.000000, 382.000000)">
                <rect id="矩形" fill="#000000" opacity="0" x="0" y="0" width="16" height="16"></rect>
                <path d="M8,0 C3.58171875,0 0,3.58171875 0,8 C0,12.4182812 3.58171875,16 8,16 C12.4182812,16 16,12.4182812 16,8 C16,3.58171875 12.4182812,0 8,0 Z M8.6875,4 L8.6875,9.3045625 C8.6875,9.68426563 8.3796875,9.9920625 8,9.9920625 C7.6203125,9.9920625 7.3125,9.68426563 7.3125,9.3045625 L7.3125,4 C7.3125,3.6203125 7.6203125,3.3125 8,3.3125 C8.3796875,3.3125 8.6875,3.6203125 8.6875,4 Z M8,10.6875 C8.55228125,10.6875 9,11.1352187 9,11.6875 C9,12.2397813 8.55228125,12.6875 8,12.6875 C7.44771875,12.6875 7,12.2397813 7,11.6875 C7,11.1352187 7.44771875,10.6875 8,10.6875 Z" id="形状" fill="#F1383A"></path>
            </g>
        </g>
    </g>
</svg>