<?xml version="1.0" encoding="UTF-8"?>
<svg width="24px" height="24px" viewBox="0 0 24 24" version="1.1" xmlns="http://www.w3.org/2000/svg" xmlns:xlink="http://www.w3.org/1999/xlink">
    <!-- Generator: Sketch 63 (92445) - https://sketch.com -->
    <title>眼睛备份2</title>
    <desc>Created with Sketch.</desc>
    <g id="眼睛备份2" stroke="none" stroke-width="1" fill="none" fill-rule="evenodd">
        <g id="眼睛">
            <g fill="#000000" fill-rule="nonzero" opacity="0">
                <g id="大于号">
                    <rect id="矩形" x="0" y="0" width="24" height="24"></rect>
                </g>
            </g>
            <g transform="translate(2.400000, 4.600000)">
                <path d="M9.5906899,2.87589203 C13.1338964,2.87589203 16.360612,6.31786406 17.5930085,7.79375609 C16.360612,9.26964812 13.1338964,12.7116202 9.5906899,12.7116202 C6.04748338,12.7116202 2.82076782,9.26964812 1.58837133,7.79375609 C2.82076782,6.31786406 6.0474834,2.87589203 9.5906899,2.87589203 Z M9.5906899,1.4 C5.19391696,1.4 1.4684884,5.59536962 0.21211533,7.18901334 C-0.0707051099,7.54257512 -0.0707051099,8.04493707 0.21211533,8.39849885 C1.4684884,9.99214257 5.19391696,14.1875122 9.5906899,14.1875122 C13.9874628,14.1875122 17.7128914,9.99214255 18.9692645,8.39849885 C19.2520849,8.04493707 19.2520849,7.54257512 18.9692645,7.18901334 C17.7128914,5.59536962 13.9874628,1.4 9.5906899,1.4 Z M9.5906899,6.31786406 C10.3851141,6.31786406 11.029285,6.97855219 11.029285,7.79375609 C11.029285,8.60895999 10.3851141,9.26964812 9.5906899,9.26964812 C8.7962657,9.26964812 8.15209477,8.60895999 8.15209477,7.79375609 C8.15209477,6.97855219 8.7962657,6.31786406 9.5906899,6.31786406 Z" id="形状" fill="#898989" fill-rule="nonzero"></path>
                <path d="M9.5906899,4.84303766 C8.42702628,4.84303766 7.37791747,5.56180241 6.93301863,6.66472532 C6.48758695,7.76764825 6.73374657,9.03627602 7.55640985,9.88025182 C8.36824126,10.7219546 9.61487674,10.9761971 10.6914816,10.5196274 C11.7666982,10.0635395 12.4678801,8.98725724 12.4678801,7.79375609 C12.4678801,6.16388109 11.1800711,4.84303766 9.59122272,4.84303766 L9.5906899,4.84303766 Z" id="路径" fill="#898989" fill-rule="nonzero"></path>
                <rect id="矩形" transform="translate(9.707987, 7.698266) rotate(32.000000) translate(-9.707987, -7.698266) " x="8.80798697" y="-0.701734141" width="1.8" height="16.8" rx="0.9"></rect>
            </g>
        </g>
    </g>
</svg>