<?xml version="1.0" encoding="UTF-8"?>
<svg width="20px" height="20px" viewBox="0 0 20 20" version="1.1" xmlns="http://www.w3.org/2000/svg" xmlns:xlink="http://www.w3.org/1999/xlink">
    <!-- Generator: Sketch 63 (92445) - https://sketch.com -->
    <title>眼睛</title>
    <desc>Created with Sketch.</desc>
    <g id="眼睛" stroke="none" stroke-width="1" fill="none" fill-rule="evenodd">
        <g fill="#000000" fill-rule="nonzero" id="大于号" opacity="0">
            <g>
                <rect id="矩形" x="0" y="0" width="20" height="20"></rect>
            </g>
        </g>
        <g transform="translate(2.000000, 3.000000)" fill="#898989">
            <path d="M7.99224158,3.22991003 C10.9449137,3.22991003 13.6338433,6.09822005 14.6608404,7.32813008 C13.6338433,8.5580401 10.9449137,11.4263501 7.99224158,11.4263501 C5.03956949,11.4263501 2.35063985,8.5580401 1.32364277,7.32813008 C2.35063985,6.09822005 5.0395695,3.22991003 7.99224158,3.22991003 Z M7.99224158,2 C4.32826414,2 1.22374034,5.49614135 0.176762775,6.82417778 C-0.0589209249,7.1188126 -0.0589209249,7.53744756 0.176762775,7.83208237 C1.22374034,9.16011881 4.32826414,12.6562602 7.99224158,12.6562602 C11.656219,12.6562602 14.7607428,9.16011879 15.8077204,7.83208237 C16.0434041,7.53744756 16.0434041,7.1188126 15.8077204,6.82417778 C14.7607428,5.49614135 11.656219,2 7.99224158,2 Z M7.99224158,6.09822005 C8.65426175,6.09822005 9.19107085,6.64879349 9.19107085,7.32813008 C9.19107085,8.00746666 8.65426175,8.5580401 7.99224158,8.5580401 C7.33022141,8.5580401 6.79341231,8.00746666 6.79341231,7.32813008 C6.79341231,6.64879349 7.33022141,6.09822005 7.99224158,6.09822005 Z" id="形状" fill-rule="nonzero"></path>
            <path d="M7.99224158,4.86919805 C7.0225219,4.86919805 6.14826456,5.46816868 5.77751552,6.3872711 C5.40632245,7.30637354 5.61145547,8.36356335 6.29700821,9.06687652 C6.97353438,9.76829551 8.01239728,9.98016423 8.90956799,9.59968954 C9.80558187,9.21961625 10.3899001,8.32271436 10.3899001,7.32813008 C10.3899001,5.96990091 9.31672592,4.86919805 7.9926856,4.86919805 L7.99224158,4.86919805 Z" id="路径" fill-rule="nonzero"></path>
            <rect id="矩形" stroke="#FFFFFF" stroke-width="0.5" transform="translate(8.089989, 7.248555) rotate(32.000000) translate(-8.089989, -7.248555) " x="7.08998914" y="-0.00144511736" width="2" height="14.5" rx="0.75"></rect>
        </g>
    </g>
</svg>